<svg version="1.1" id="Layer_1" xmlns="http://www.w3.org/2000/svg" xmlns:xlink="http://www.w3.org/1999/xlink" x="0px" y="0px"
	 width="100%" viewBox="0 0 778 779" enable-background="new 0 0 778 779" xml:space="preserve">
<path fill="#7998AC" opacity="1.000000" stroke="none" 
	d="
M779.000000,205.000000 
	C779.000000,208.362106 779.000000,211.724197 778.678589,215.672119 
	C757.207031,228.150299 737.629211,242.105759 721.338257,260.265961 
	C712.140442,270.519226 704.510864,281.731781 701.488098,295.503326 
	C698.519409,309.028625 704.827881,320.235413 717.354858,323.447815 
	C729.775879,326.633026 741.092896,324.165588 751.204468,316.344574 
	C759.992249,309.547546 765.626343,300.381287 770.258667,290.494934 
	C772.850220,284.964050 775.468994,279.445892 778.030945,274.393860 
	C777.990967,313.993195 777.998840,353.120636 777.999390,392.248077 
	C778.001038,518.966980 778.000671,645.685913 777.994507,772.404846 
	C777.994385,774.567810 777.911926,776.730835 777.415039,778.931396 
	C595.005615,778.979309 413.049103,778.988770 231.092606,779.009827 
	C228.765594,779.010132 226.438614,779.159058 223.841766,779.194824 
	C223.399734,779.091187 223.227554,779.031372 223.183105,778.520386 
	C223.345230,775.903625 223.409500,773.737976 223.409637,771.572327 
	C223.414764,691.248962 223.413971,610.925598 223.413971,530.602234 
	C223.413971,528.508301 223.413956,526.414429 223.413956,523.759949 
	C307.170868,527.003174 387.839081,515.039246 465.784760,486.159454 
	C543.714844,457.285400 613.398865,415.191101 672.600708,356.427704 
	C670.551697,356.723328 668.890320,357.669922 667.234802,358.626495 
	C611.356812,390.912994 552.979736,417.377960 490.558136,434.401398 
	C461.069672,442.443420 431.208435,448.593353 400.700653,451.050598 
	C385.138275,452.304047 369.497589,453.962952 353.940857,453.560608 
	C334.393066,453.054993 314.830719,451.171906 295.392151,448.884674 
	C272.572327,446.199646 250.509033,440.129669 229.127396,431.568390 
	C224.681213,429.788116 223.299454,427.419159 223.309555,422.704529 
	C223.460602,352.213593 223.414001,281.722229 223.413986,211.230988 
	C223.413986,209.274918 223.413986,207.318832 223.413986,204.844131 
	C226.347870,204.844131 228.648239,204.844131 230.948608,204.844131 
	C410.926270,204.844131 590.903931,204.844940 770.881592,204.835175 
	C773.209717,204.835052 775.537842,204.700302 778.150024,204.719559 
	C778.622742,204.873840 778.811340,204.936920 779.000000,205.000000 
M652.020752,258.793610 
	C646.579468,260.849121 641.049744,262.698853 635.711975,264.995117 
	C610.023071,276.046234 585.625061,289.191284 565.785278,309.433685 
	C554.232849,321.220520 545.820801,334.707611 543.455017,351.450928 
	C541.788574,363.244812 548.323792,373.441345 559.848511,376.438263 
	C571.311768,379.419067 581.977417,377.599731 591.718201,370.838593 
	C601.777222,363.856659 608.101868,353.927551 612.997498,343.022675 
	C617.835022,332.247192 622.200989,321.260010 627.039368,310.484924 
	C634.913269,292.949768 640.420044,274.198425 653.521423,258.965057 
	C653.493774,258.744293 653.466125,258.523499 653.438477,258.302734 
	C653.218811,258.458557 652.999207,258.614380 652.020752,258.793610 
M497.347534,300.879974 
	C502.085327,290.739868 506.823120,280.599792 512.056213,269.399536 
	C501.046051,274.922638 490.736755,279.819122 480.681335,285.190857 
	C452.738495,300.118286 425.495270,316.153259 402.027344,337.765808 
	C392.795959,346.267395 384.512726,355.578857 379.817871,367.510712 
	C375.124207,379.439514 377.123322,390.317719 386.170654,399.220459 
	C402.484558,415.273682 433.982819,422.943604 456.127899,395.968292 
	C464.918549,385.260223 470.445251,372.863220 475.169830,359.976776 
	C482.324615,340.461975 489.755127,321.048279 497.347534,300.879974 
M511.802734,523.746582 
	C516.454956,525.881226 520.923889,528.680359 525.794373,530.023315 
	C539.226501,533.727051 552.913452,532.618774 566.429626,530.423157 
	C603.212891,524.448059 637.732727,511.588043 671.024658,495.198975 
	C677.215698,492.151245 683.162598,488.607635 688.689331,485.584351 
	C673.931030,484.546997 659.022278,484.183777 644.304382,482.316559 
	C616.920410,478.842499 589.687805,474.182220 562.311890,470.635468 
	C548.289978,468.818848 534.084656,468.323639 520.267700,472.726288 
	C512.089722,475.332214 505.406219,479.960480 502.917908,488.531189 
	C499.138550,501.548737 500.598633,513.594910 511.802734,523.746582 
M716.160400,438.697327 
	C741.637451,426.992401 761.482544,408.896881 777.478027,385.122864 
	C775.680115,385.122864 774.717590,384.967987 773.820557,385.145233 
	C742.018738,391.430115 709.856689,393.563080 677.503174,394.006592 
	C670.776123,394.098816 663.902222,395.388092 657.398926,397.208038 
	C646.646240,400.217102 639.159851,407.245819 635.620239,418.070282 
	C630.106445,434.932007 638.910522,447.644775 656.545288,449.064911 
	C677.099792,450.720093 696.624573,447.054321 716.160400,438.697327 
z"/>
<path fill="#FEFFFF" opacity="1.000000" stroke="none" 
	d="
M778.075439,273.921967 
	C775.468994,279.445892 772.850220,284.964050 770.258667,290.494934 
	C765.626343,300.381287 759.992249,309.547546 751.204468,316.344574 
	C741.092896,324.165588 729.775879,326.633026 717.354858,323.447815 
	C704.827881,320.235413 698.519409,309.028625 701.488098,295.503326 
	C704.510864,281.731781 712.140442,270.519226 721.338257,260.265961 
	C737.629211,242.105759 757.207031,228.150299 778.678589,216.128967 
	C779.000000,235.020889 779.000000,254.041794 778.774414,273.445984 
	C778.548828,273.829285 778.075439,273.921967 778.075439,273.921967 
z"/>
<path fill="#C8C7C7" opacity="1.000000" stroke="none" 
	d="
M1.000000,2.000000 
	C1.166667,1.666667 1.315919,1.056198 1.502793,1.044456 
	C2.830883,0.961004 4.166667,1.000000 5.500000,1.000000 
	C263.333344,1.000000 521.166687,1.000000 778.737915,1.557773 
	C778.299805,2.146987 778.123657,2.178428 777.489868,2.119744 
	C776.198975,2.019756 775.365845,2.001255 774.532654,2.001251 
	C518.542786,1.999930 262.552948,1.999609 6.563085,2.006497 
	C5.066703,2.006537 3.570324,2.107792 1.807150,2.110101 
	C1.360238,2.038946 1.180119,2.019473 1.000000,2.000000 
z"/>
<path fill="#595657" opacity="1.000000" stroke="none" 
	d="
M1.000000,2.457953 
	C1.180119,2.019473 1.360238,2.038946 1.784854,2.567806 
	C2.019650,4.076781 2.001453,5.076369 2.001447,6.075957 
	C2.000115,262.164246 1.999944,518.252502 2.003016,774.340820 
	C2.003034,775.839905 2.049026,777.339050 1.806752,778.889160 
	C1.359970,778.960144 1.179985,778.980042 1.000000,779.000000 
	C1.000000,520.305298 1.000000,261.610596 1.000000,2.457953 
z"/>
<path fill="#DDE5EA" opacity="1.000000" stroke="none" 
	d="
M224.111618,779.238647 
	C226.438614,779.159058 228.765594,779.010132 231.092606,779.009827 
	C413.049103,778.988770 595.005615,778.979309 777.697998,778.960938 
	C778.622559,778.968506 778.811279,778.984253 779.000000,779.000000 
	C778.833801,779.333374 778.684875,779.943848 778.498413,779.955505 
	C777.171265,780.038940 775.836548,780.000000 774.504211,780.000000 
	C591.312073,780.000000 408.119904,780.000000 224.489105,779.809265 
	C224.050461,779.618530 224.111618,779.238647 224.111618,779.238647 
z"/>
<path fill="#BBCBD5" opacity="1.000000" stroke="none" 
	d="
M779.000000,778.536133 
	C778.811279,778.984253 778.622559,778.968506 778.150879,778.923340 
	C777.911926,776.730835 777.994385,774.567810 777.994507,772.404846 
	C778.000671,645.685913 778.001038,518.966980 777.999390,392.248077 
	C777.998840,353.120636 777.990967,313.993195 778.030945,274.393860 
	C778.075439,273.921967 778.548828,273.829285 778.774414,273.914642 
	C779.000000,442.024078 779.000000,610.048157 779.000000,778.536133 
z"/>
<path fill="#C8C7C7" opacity="1.000000" stroke="none" 
	d="
M223.841766,779.194824 
	C224.111618,779.238647 224.050461,779.618530 224.025238,779.809265 
	C149.666672,780.000000 75.333336,780.000000 1.000000,779.500000 
	C1.179985,778.980042 1.359970,778.960144 2.266075,778.958740 
	C76.346581,778.975342 149.700974,778.973450 223.055359,778.971558 
	C223.227554,779.031372 223.399734,779.091187 223.841766,779.194824 
z"/>
<path fill="#424448" opacity="1.000000" stroke="none" 
	d="
M777.947571,2.209869 
	C778.123657,2.178428 778.299805,2.146987 778.737915,2.057773 
	C779.000000,69.354225 779.000000,136.708450 779.000000,204.531342 
	C778.811340,204.936920 778.622742,204.873840 778.158630,204.276932 
	C777.904663,136.565369 777.926147,69.387619 777.947571,2.209869 
z"/>
<path fill="#231F20" opacity="1.000000" stroke="none" 
	d="
M777.489868,2.119744 
	C777.926147,69.387619 777.904663,136.565369 777.874573,204.185745 
	C775.537842,204.700302 773.209717,204.835052 770.881592,204.835175 
	C590.903931,204.844940 410.926270,204.844131 230.948608,204.844131 
	C228.648239,204.844131 226.347870,204.844131 223.413986,204.844131 
	C223.413986,207.318832 223.413986,209.274918 223.413986,211.230988 
	C223.414001,281.722229 223.460602,352.213593 223.309555,422.704529 
	C223.299454,427.419159 224.681213,429.788116 229.127396,431.568390 
	C250.509033,440.129669 272.572327,446.199646 295.392151,448.884674 
	C314.830719,451.171906 334.393066,453.054993 353.940857,453.560608 
	C369.497589,453.962952 385.138275,452.304047 400.700653,451.050598 
	C431.208435,448.593353 461.069672,442.443420 490.558136,434.401398 
	C552.979736,417.377960 611.356812,390.912994 667.234802,358.626495 
	C668.890320,357.669922 670.551697,356.723328 672.600708,356.427704 
	C613.398865,415.191101 543.714844,457.285400 465.784760,486.159454 
	C387.839081,515.039246 307.170868,527.003174 223.413956,523.759949 
	C223.413956,526.414429 223.413971,528.508301 223.413971,530.602234 
	C223.413971,610.925598 223.414764,691.248962 223.409637,771.572327 
	C223.409500,773.737976 223.345230,775.903625 223.183105,778.520386 
	C149.700974,778.973450 76.346581,778.975342 2.532872,778.907715 
	C2.049026,777.339050 2.003034,775.839905 2.003016,774.340820 
	C1.999944,518.252502 2.000115,262.164246 2.001447,6.075957 
	C2.001453,5.076369 2.019650,4.076781 2.051647,2.619488 
	C3.570324,2.107792 5.066703,2.006537 6.563085,2.006497 
	C262.552948,1.999609 518.542786,1.999930 774.532654,2.001251 
	C775.365845,2.001255 776.198975,2.019756 777.489868,2.119744 
z"/>
<path fill="#FEFFFF" opacity="1.000000" stroke="none" 
	d="
M497.208008,301.235809 
	C489.755127,321.048279 482.324615,340.461975 475.169830,359.976776 
	C470.445251,372.863220 464.918549,385.260223 456.127899,395.968292 
	C433.982819,422.943604 402.484558,415.273682 386.170654,399.220459 
	C377.123322,390.317719 375.124207,379.439514 379.817871,367.510712 
	C384.512726,355.578857 392.795959,346.267395 402.027344,337.765808 
	C425.495270,316.153259 452.738495,300.118286 480.681335,285.190857 
	C490.736755,279.819122 501.046051,274.922638 512.056213,269.399536 
	C506.823120,280.599792 502.085327,290.739868 497.208008,301.235809 
z"/>
<path fill="#FEFEFF" opacity="1.000000" stroke="none" 
	d="
M511.523834,523.520630 
	C500.598633,513.594910 499.138550,501.548737 502.917908,488.531189 
	C505.406219,479.960480 512.089722,475.332214 520.267700,472.726288 
	C534.084656,468.323639 548.289978,468.818848 562.311890,470.635468 
	C589.687805,474.182220 616.920410,478.842499 644.304382,482.316559 
	C659.022278,484.183777 673.931030,484.546997 688.689331,485.584351 
	C683.162598,488.607635 677.215698,492.151245 671.024658,495.198975 
	C637.732727,511.588043 603.212891,524.448059 566.429626,530.423157 
	C552.913452,532.618774 539.226501,533.727051 525.794373,530.023315 
	C520.923889,528.680359 516.454956,525.881226 511.523834,523.520630 
z"/>
<path fill="#FEFEFF" opacity="1.000000" stroke="none" 
	d="
M653.115540,259.106873 
	C640.420044,274.198425 634.913269,292.949768 627.039368,310.484924 
	C622.200989,321.260010 617.835022,332.247192 612.997498,343.022675 
	C608.101868,353.927551 601.777222,363.856659 591.718201,370.838593 
	C581.977417,377.599731 571.311768,379.419067 559.848511,376.438263 
	C548.323792,373.441345 541.788574,363.244812 543.455017,351.450928 
	C545.820801,334.707611 554.232849,321.220520 565.785278,309.433685 
	C585.625061,289.191284 610.023071,276.046234 635.711975,264.995117 
	C641.049744,262.698853 646.579468,260.849121 652.483765,258.866455 
	C652.946716,258.939331 653.115540,259.106873 653.115540,259.106873 
z"/>
<path fill="#FEFEFF" opacity="1.000000" stroke="none" 
	d="
M715.807312,438.839844 
	C696.624573,447.054321 677.099792,450.720093 656.545288,449.064911 
	C638.910522,447.644775 630.106445,434.932007 635.620239,418.070282 
	C639.159851,407.245819 646.646240,400.217102 657.398926,397.208038 
	C663.902222,395.388092 670.776123,394.098816 677.503174,394.006592 
	C709.856689,393.563080 742.018738,391.430115 773.820557,385.145233 
	C774.717590,384.967987 775.680115,385.122864 777.478027,385.122864 
	C761.482544,408.896881 741.637451,426.992401 715.807312,438.839844 
z"/>
<path fill="#FEFEFF" opacity="1.000000" stroke="none" 
	d="
M652.863159,258.854767 
	C652.999207,258.614380 653.218811,258.458557 653.438477,258.302734 
	C653.466125,258.523499 653.493774,258.744293 653.318481,259.035950 
	C653.115540,259.106873 652.946716,258.939331 652.863159,258.854767 
z"/>
</svg>